<?xml version="1.0" encoding="UTF-8" standalone="no"?><svg xmlns="http://www.w3.org/2000/svg" xmlns:xlink="http://www.w3.org/1999/xlink" contentScriptType="application/ecmascript" contentStyleType="text/css" height="1170px" preserveAspectRatio="none" style="width:2040px;height:1170px;" version="1.1" viewBox="0 0 2040 1170" width="2040px" zoomAndPan="magnify"><defs><filter height="300%" id="f10wpgbixeffyy" width="300%" x="-1" y="-1"><feGaussianBlur result="blurOut" stdDeviation="4.0"/><feColorMatrix in="blurOut" result="blurOut2" type="matrix" values="0 0 0 0 0 0 0 0 0 0 0 0 0 0 0 0 0 0 .4 0"/><feOffset dx="8.0" dy="8.0" in="blurOut2" result="blurOut3"/><feBlend in="SourceGraphic" in2="blurOut3" mode="normal"/></filter></defs><g><!--MD5=[2961d9be8c55eb817345430b4073e166]
cluster Dagger-Hilt--><polygon fill="#FFFFFF" filter="url(#f10wpgbixeffyy)" points="32,12,218,12,232,56.9766,2006,56.9766,2006,1156,32,1156,32,12" style="stroke:#000000;stroke-width:3.0;"/><line style="stroke:#000000;stroke-width:3.0;" x1="32" x2="232" y1="56.9766" y2="56.9766"/><text fill="#000000" font-family="sans-serif" font-size="28" font-weight="bold" lengthAdjust="spacing" textLength="174" x="40" y="43.0703">Dagger-Hilt</text><!--MD5=[72cde8695aca950924826f7c899fc017]
cluster entry--><rect fill="#FFFFFF" filter="url(#f10wpgbixeffyy)" height="934" style="stroke:#000000;stroke-width:3.0;" width="844" x="1114" y="174"/><path d="M1284,174 L1284,192.9766 L1264,212.9766 L1114,212.9766 " fill="none" style="stroke:#000000;stroke-width:3.0;"/><text fill="#000000" font-family="sans-serif" font-size="28" font-weight="bold" lengthAdjust="spacing" textLength="150" x="1120" y="203.0703">EntryPoint</text><!--MD5=[d3adad3d42be31427cf1bc84ba0f98cf]
cluster Activities--><rect fill="#FFFFFF" filter="url(#f10wpgbixeffyy)" height="328" style="stroke:#000000;stroke-width:3.0;" width="710" x="1196" y="490"/><path d="M1352,490 L1352,508.9766 L1332,528.9766 L1196,528.9766 " fill="none" style="stroke:#000000;stroke-width:3.0;"/><text fill="#000000" font-family="sans-serif" font-size="28" font-weight="bold" lengthAdjust="spacing" textLength="136" x="1202" y="519.0703">Activities</text><!--MD5=[be24512b7124c2a44e8f433ecca44cb4]
cluster testEntry--><rect fill="#D3D3D3" filter="url(#f10wpgbixeffyy)" height="194" style="stroke:#000000;stroke-width:3.0;" width="348" x="1510" y="576"/><path d="M1594,576 L1594,594.9766 L1574,614.9766 L1510,614.9766 " fill="none" style="stroke:#000000;stroke-width:3.0;"/><text fill="#000000" font-family="sans-serif" font-size="28" font-weight="bold" lengthAdjust="spacing" textLength="64" x="1516" y="605.0703">Test</text><!--MD5=[477546b927786c05e31d9ac83a0737ee]
cluster Fragments--><rect fill="#FFFFFF" filter="url(#f10wpgbixeffyy)" height="194" style="stroke:#000000;stroke-width:3.0;" width="748" x="1162" y="866"/><path d="M1334,866 L1334,884.9766 L1314,904.9766 L1162,904.9766 " fill="none" style="stroke:#000000;stroke-width:3.0;"/><text fill="#000000" font-family="sans-serif" font-size="28" font-weight="bold" lengthAdjust="spacing" textLength="152" x="1168" y="895.0703">Fragments</text><!--MD5=[7552260fd2021a323855cf929da74f79]
cluster modules--><rect fill="#FFFFFF" filter="url(#f10wpgbixeffyy)" height="679" style="stroke:#000000;stroke-width:3.0;" width="986" x="80" y="98"/><text fill="#000000" font-family="sans-serif" font-size="28" font-weight="bold" lengthAdjust="spacing" textLength="122" x="512" y="129.0703">Modules</text><!--MD5=[c0e4946bd898d60d5fe8ad70bf6c1c37]
cluster testModule--><rect fill="#D3D3D3" filter="url(#f10wpgbixeffyy)" height="174" style="stroke:#000000;stroke-width:3.0;" width="308" x="502" y="184"/><path d="M586,184 L586,202.9766 L566,222.9766 L502,222.9766 " fill="none" style="stroke:#000000;stroke-width:3.0;"/><text fill="#000000" font-family="sans-serif" font-size="28" font-weight="bold" lengthAdjust="spacing" textLength="64" x="508" y="213.0703">Test</text><!--MD5=[4541fb81c80c07473fe4b07432ef0971]
entity app--><rect fill="#FEFECE" filter="url(#f10wpgbixeffyy)" height="92.9766" style="stroke:#A80036;stroke-width:3.0;" width="136" x="1382" y="244"/><rect fill="#FEFECE" height="20" style="stroke:#A80036;stroke-width:3.0;" width="30" x="1478" y="254"/><rect fill="#FEFECE" height="4" style="stroke:#A80036;stroke-width:3.0;" width="8" x="1474" y="258"/><rect fill="#FEFECE" height="4" style="stroke:#A80036;stroke-width:3.0;" width="8" x="1474" y="266"/><text fill="#000000" font-family="sans-serif" font-size="28" lengthAdjust="spacing" textLength="56" x="1412" y="311.0703">App</text><!--MD5=[53ccf4b3ee6cf4337a0ab93ac09644f3]
entity main--><rect fill="#FEFECE" filter="url(#f10wpgbixeffyy)" height="92.9766" style="stroke:#A80036;stroke-width:3.0;" width="244" x="1228" y="646"/><rect fill="#FEFECE" height="20" style="stroke:#A80036;stroke-width:3.0;" width="30" x="1432" y="656"/><rect fill="#FEFECE" height="4" style="stroke:#A80036;stroke-width:3.0;" width="8" x="1428" y="660"/><rect fill="#FEFECE" height="4" style="stroke:#A80036;stroke-width:3.0;" width="8" x="1428" y="668"/><text fill="#000000" font-family="sans-serif" font-size="28" lengthAdjust="spacing" textLength="164" x="1258" y="713.0703">MainActivity</text><!--MD5=[e496c201c160328513025af463636126]
entity hilt--><rect fill="#FEFECE" filter="url(#f10wpgbixeffyy)" height="92.9766" style="stroke:#A80036;stroke-width:3.0;" width="282" x="1543" y="646"/><rect fill="#FEFECE" height="20" style="stroke:#A80036;stroke-width:3.0;" width="30" x="1785" y="656"/><rect fill="#FEFECE" height="4" style="stroke:#A80036;stroke-width:3.0;" width="8" x="1781" y="660"/><rect fill="#FEFECE" height="4" style="stroke:#A80036;stroke-width:3.0;" width="8" x="1781" y="668"/><text fill="#000000" font-family="sans-serif" font-size="28" lengthAdjust="spacing" textLength="202" x="1573" y="713.0703">HiltActivityTest</text><!--MD5=[7ace05dfa85c5aa630e44d2d8249b14d]
entity stories--><rect fill="#FEFECE" filter="url(#f10wpgbixeffyy)" height="92.9766" style="stroke:#A80036;stroke-width:3.0;" width="306" x="1571" y="936"/><rect fill="#FEFECE" height="20" style="stroke:#A80036;stroke-width:3.0;" width="30" x="1837" y="946"/><rect fill="#FEFECE" height="4" style="stroke:#A80036;stroke-width:3.0;" width="8" x="1833" y="950"/><rect fill="#FEFECE" height="4" style="stroke:#A80036;stroke-width:3.0;" width="8" x="1833" y="958"/><text fill="#000000" font-family="sans-serif" font-size="28" lengthAdjust="spacing" textLength="226" x="1601" y="1003.0703">StoriesFragment</text><!--MD5=[c249f364d83a401275c0ae35335e5f45]
entity source--><rect fill="#FEFECE" filter="url(#f10wpgbixeffyy)" height="92.9766" style="stroke:#A80036;stroke-width:3.0;" width="306" x="1195" y="936"/><rect fill="#FEFECE" height="20" style="stroke:#A80036;stroke-width:3.0;" width="30" x="1461" y="946"/><rect fill="#FEFECE" height="4" style="stroke:#A80036;stroke-width:3.0;" width="8" x="1457" y="950"/><rect fill="#FEFECE" height="4" style="stroke:#A80036;stroke-width:3.0;" width="8" x="1457" y="958"/><text fill="#000000" font-family="sans-serif" font-size="28" lengthAdjust="spacing" textLength="226" x="1225" y="1003.0703">SourceFragment</text><!--MD5=[d4fd26f9614fa07fe76bdcffa998e3d3]
entity local--><rect fill="#FEFECE" filter="url(#f10wpgbixeffyy)" height="97.9531" style="stroke:#000000;stroke-width:3.0;" width="198" x="121" y="647"/><rect fill="#FEFECE" height="97.9531" style="stroke:#000000;stroke-width:3.0;" width="198" x="113" y="639"/><ellipse cx="140" cy="672.9766" fill="#000000" rx="5" ry="5" style="stroke:#000000;stroke-width:0.0;"/><text fill="#000000" font-family="sans-serif" font-size="28" lengthAdjust="spacing" textLength="134" x="153" y="682.0703">Local (DB)</text><ellipse cx="140" cy="705.9531" fill="#000000" rx="5" ry="5" style="stroke:#000000;stroke-width:0.0;"/><text fill="#000000" font-family="sans-serif" font-size="28" lengthAdjust="spacing" textLength="142" x="153" y="715.0469">Data Store</text><!--MD5=[54d971dad47cff388ffbbbedc20d1b22]
entity remoteParams--><rect fill="#FEFECE" filter="url(#f10wpgbixeffyy)" height="64.9766" style="stroke:#000000;stroke-width:3.0;" width="236" x="228" y="262"/><rect fill="#FEFECE" height="64.9766" style="stroke:#000000;stroke-width:3.0;" width="236" x="220" y="254"/><text fill="#000000" font-family="sans-serif" font-size="28" lengthAdjust="spacing" textLength="204" x="236" y="297.0703">RemoteParams</text><!--MD5=[200d7cc177ce404b822df68e5d127056]
entity remote--><rect fill="#FEFECE" filter="url(#f10wpgbixeffyy)" height="64.9766" style="stroke:#000000;stroke-width:3.0;" width="208" x="398" y="664"/><rect fill="#FEFECE" height="64.9766" style="stroke:#000000;stroke-width:3.0;" width="208" x="390" y="656"/><text fill="#000000" font-family="sans-serif" font-size="28" lengthAdjust="spacing" textLength="176" x="406" y="699.0703">Remote (API)</text><!--MD5=[24b005fcbd1feaad7f7dedc55a678d14]
entity repository--><rect fill="#FEFECE" filter="url(#f10wpgbixeffyy)" height="64.9766" style="stroke:#000000;stroke-width:3.0;" width="178" x="685" y="664"/><rect fill="#FEFECE" height="64.9766" style="stroke:#000000;stroke-width:3.0;" width="178" x="677" y="656"/><text fill="#000000" font-family="sans-serif" font-size="28" lengthAdjust="spacing" textLength="146" x="693" y="699.0703">Repository</text><!--MD5=[815e17c207bbf712f7f26918c1feb6f8]
entity utils--><rect fill="#FEFECE" filter="url(#f10wpgbixeffyy)" height="64.9766" style="stroke:#000000;stroke-width:3.0;" width="92" x="942" y="664"/><rect fill="#FEFECE" height="64.9766" style="stroke:#000000;stroke-width:3.0;" width="92" x="934" y="656"/><text fill="#000000" font-family="sans-serif" font-size="28" lengthAdjust="spacing" textLength="60" x="950" y="699.0703">Utils</text><!--MD5=[a7a9bb650605d14f484b454649690d0b]
entity remoteParamsTest--><rect fill="#FEFECE" filter="url(#f10wpgbixeffyy)" height="64.9766" style="stroke:#000000;stroke-width:3.0;" width="236" x="542" y="262"/><rect fill="#FEFECE" height="64.9766" style="stroke:#000000;stroke-width:3.0;" width="236" x="534" y="254"/><text fill="#000000" font-family="sans-serif" font-size="28" lengthAdjust="spacing" textLength="204" x="550" y="297.0703">RemoteParams</text><!--MD5=[bb843bb5dcebdd4b25668a323af70c09]
link app to main--><path d="M1438.92,336.12 C1420.52,409.34 1383.74,555.76 1363.72,635.38 " fill="none" id="app-to-main" style="stroke:#A80036;stroke-width:2.0;"/><polygon fill="#A80036" points="1361.14,645.68,1373.2776,630.1661,1363.5721,635.9803,1357.758,626.2748,1361.14,645.68" style="stroke:#A80036;stroke-width:2.0;"/><!--MD5=[6d1843a9146719223e0e0f3ed2298ee7]
link app to hilt--><path d="M1475.94,336.12 C1514.86,402.3 1588.96,528.34 1637.4,610.74 " fill="none" id="app-to-hilt" style="stroke:#A80036;stroke-width:2.0;stroke-dasharray:7.0,7.0;"/><polygon fill="none" points="1649.74,604.12,1657.94,645.68,1625.6,618.3,1649.74,604.12" style="stroke:#A80036;stroke-width:2.0;"/><!--MD5=[d1a17e29dd7479108c3b0c1dce3bd6f3]
link main to stories--><path d="M1396.56,738.44 C1427.6,767.12 1469.9,804.44 1510,834 C1520.92,842.06 1524.64,842.58 1536,850 C1575.22,875.6 1618.22,905.22 1653.18,929.72 " fill="none" id="main-to-stories" style="stroke:#A80036;stroke-width:2.0;"/><polygon fill="#A80036" points="1661.9,935.82,1651.7732,918.9248,1653.7184,930.07,1642.5732,932.0153,1661.9,935.82" style="stroke:#A80036;stroke-width:2.0;"/><!--MD5=[26bd99861655a5d765e4713f77677ed9]
link main to source--><path d="M1349.7,738.06 C1349.34,788.3 1348.76,870.5 1348.38,924.92 " fill="none" id="main-to-source" style="stroke:#A80036;stroke-width:2.0;"/><polygon fill="#A80036" points="1348.32,935.42,1356.4227,917.466,1348.3771,925.4202,1340.423,917.3746,1348.32,935.42" style="stroke:#A80036;stroke-width:2.0;"/><!--MD5=[b0f0e5f76b24d279a3c92a4cb606db82]
link local to remote--><!--MD5=[7cae5ffce7bd18c682860d3abcb050ce]
link remote to repository--><!--MD5=[f351ba4ca78a2cced71926db6d68e248]
link repository to utils--><!--MD5=[d9e41c071b024dd5d13485e42c42a9dd]
link remoteParams to remote--><path d="M355.58,326.62 C383.88,398.84 449.18,565.46 480.56,645.5 " fill="none" id="remoteParams-to-remote" style="stroke:#A80036;stroke-width:2.0;"/><polygon fill="#A80036" points="484.58,655.74,485.5004,636.0638,480.95,646.4221,470.5917,641.8718,484.58,655.74" style="stroke:#A80036;stroke-width:2.0;"/><!--MD5=[c3f2e1a1e40959a09523b79d4edceacb]
link remoteParamsTest to remote--><path d="M642.26,326.62 C616.52,391.48 560.54,532.44 526.4,618.48 " fill="none" id="remoteParamsTest-to-remote" style="stroke:#A80036;stroke-width:2.0;stroke-dasharray:7.0,7.0;"/><polygon fill="none" points="539.38,623.72,511.6,655.74,513.34,613.4,539.38,623.72" style="stroke:#A80036;stroke-width:2.0;"/><!--MD5=[13f1f2b9f51507f96f74bcdf5c71d8b6]
link remoteParams to remoteParamsTest--><path d="M464.04,290 C487.28,290 510.54,290 533.78,290 " fill="none" id="remoteParams-remoteParamsTest" style="stroke:#A80036;stroke-width:2.0;"/><!--MD5=[f74c6680d91a04935c5da9afeee4305f]
@startuml
package Dagger-Hilt {
    frame EntryPoint as entry {
        component App as app

        frame Activities {
            component MainActivity as main

            frame Test as testEntry #LightGray {
                component HiltActivityTest as hilt
            }
        }

        frame Fragments {
            component StoriesFragment as stories
            component SourceFragment as source
        }

        app -down-> main
        app -down..|> hilt
        main -down-> stories
        main -down-> source
    }

    rectangle Modules as modules {
        collections "* Local (DB)\n* Data Store" as local
        collections "RemoteParams" as remoteParams
        collections "Remote (API)" as remote
        collections "Repository" as repository
        collections "Utils" as utils

        frame Test as testModule #LightGray {
            collections "RemoteParams" as remoteParamsTest
        }

        local -[hidden]> remote
        remote -[hidden]> repository
        repository -[hidden]> utils

        remoteParams -down-> remote
        remoteParamsTest -down..|> remote

        remoteParams - remoteParamsTest
    }
}
@enduml

PlantUML version 1.2021.00(Sun Jan 10 05:25:05 EST 2021)
(GPL source distribution)
Java Runtime: OpenJDK Runtime Environment
JVM: OpenJDK 64-Bit Server VM
Default Encoding: UTF-8
Language: en
Country: US
--></g></svg>