<?xml version="1.0" encoding="UTF-8" standalone="no"?><svg xmlns="http://www.w3.org/2000/svg" xmlns:xlink="http://www.w3.org/1999/xlink" contentScriptType="application/ecmascript" contentStyleType="text/css" height="604px" preserveAspectRatio="none" style="width:834px;height:604px;" version="1.1" viewBox="0 0 834 604" width="834px" zoomAndPan="magnify"><defs><filter height="300%" id="f16" width="300%" x="-1" y="-1"><feGaussianBlur result="blurOut" stdDeviation="4.0"/><feColorMatrix in="blurOut" result="blurOut2" type="matrix" values="0 0 0 0 0 0 0 0 0 0 0 0 0 0 0 0 0 0 .4 0"/><feOffset dx="8.0" dy="8.0" in="blurOut2" result="blurOut3"/><feBlend in="SourceGraphic" in2="blurOut3" mode="normal"/></filter></defs><g><!--MD5=[7ff8f96b23ba9debb3e74655407403ab]
cluster Room-DB--><polygon fill="#FFFFFF" filter="url(#f16)" points="32,12,178,12,192,56.9766,780,56.9766,780,590,32,590,32,12" style="stroke:#000000;stroke-width:3.0;"/><line style="stroke:#000000;stroke-width:3.0;" x1="32" x2="192" y1="56.9766" y2="56.9766"/><text fill="#000000" font-family="sans-serif" font-size="28" font-weight="bold" lengthAdjust="spacing" textLength="134" x="40" y="43.0703">Room DB</text><!--MD5=[44a1b4afaef76c16e6c9ec4990ad0c8d]
class Item--><rect codeLine="18" fill="#FEFECE" filter="url(#f16)" height="183.6406" id="Item" style="stroke:#000000;stroke-width:3.0;" width="208" x="226" y="90"/><ellipse cx="298.3" cy="122" fill="#22CC00" rx="22" ry="22" style="stroke:#000000;stroke-width:2.0;"/><path d="M305.5285,135 L290.0891,135 L290.0891,110.2139 L305.5285,110.2139 L305.5285,114.5303 L294.9865,114.5303 L294.9865,119.876 L304.5324,119.876 L304.5324,124.1924 L294.9865,124.1924 L294.9865,130.6836 L305.5285,130.6836 Z " fill="#000000"/><text fill="#000000" font-family="sans-serif" font-size="24" lengthAdjust="spacing" textLength="50" x="335.7" y="131.0703">Item</text><line style="stroke:#000000;stroke-width:3.0;" x1="228" x2="432" y1="154" y2="154"/><path d="M250.0833,167.7435 C247.5533,167.7435 245.5,169.7968 245.5,172.3268 C245.5,172.6202 245.5,172.9135 245.555,173.1885 L240,178.7435 L240,182.4102 L245.5,182.4102 L245.5,178.7435 L249.1667,178.7435 L249.1667,176.9102 L249.2217,176.8552 C249.4967,176.9102 249.79,176.9102 250.0833,176.9102 C252.6133,176.9102 254.6667,174.8568 254.6667,172.3268 C254.6667,169.7968 252.6133,167.7435 250.0833,167.7435 M251,169.5768 C252.0083,169.5768 252.8333,170.4018 252.8333,171.4102 C252.8333,172.4185 252.0083,173.2435 251,173.2435 C249.9917,173.2435 249.1667,172.4185 249.1667,171.4102 C249.1667,170.4018 249.9917,169.5768 251,169.5768 " fill="#000000" style="stroke:;stroke-width:0.0;stroke-dasharray:;"/><text fill="#000000" font-family="sans-serif" font-size="22" font-weight="bold" lengthAdjust="spacing" textLength="22" x="256.6667" y="183.2695">id</text><text fill="#000000" font-family="sans-serif" font-size="22" lengthAdjust="spacing" textLength="76" x="278.6667" y="183.2695">: String</text><text fill="#000000" font-family="sans-serif" font-size="22" lengthAdjust="spacing" text-decoration="underline" textLength="58" x="238" y="209.1797">name</text><text fill="#000000" font-family="sans-serif" font-size="22" lengthAdjust="spacing" textLength="76" x="296" y="209.1797">: String</text><text fill="#000000" font-family="sans-serif" font-size="22" lengthAdjust="spacing" text-decoration="underline" textLength="54" x="238" y="235.0898">price</text><text fill="#000000" font-family="sans-serif" font-size="22" lengthAdjust="spacing" textLength="64" x="292" y="235.0898">: Float</text><text fill="#000000" font-family="sans-serif" font-size="22" lengthAdjust="spacing" text-decoration="underline" textLength="108" x="238" y="261">thumbnail</text><text fill="#000000" font-family="sans-serif" font-size="22" lengthAdjust="spacing" textLength="76" x="346" y="261">: String</text><!--MD5=[b1684f6344e394d731d818626d255efe]
class ItemBasket--><rect codeLine="26" fill="#F0F8FF" filter="url(#f16)" height="147.8203" id="ItemBasket" style="stroke:#0000FF;stroke-width:2.0;stroke-dasharray:1.0,3.0;" width="326" x="109" y="406"/><ellipse cx="200.5" cy="438" fill="#84B1FF" rx="22" ry="22" style="stroke:#0000FF;stroke-width:2.0;"/><path d="M203.1836,452.5 L198.2861,452.5 L198.2861,431.9971 L191.9941,431.9971 L191.9941,427.7139 L209.4756,427.7139 L209.4756,431.9971 L203.1836,431.9971 Z " fill="#000000"/><text fill="#000000" font-family="sans-serif" font-size="24" lengthAdjust="spacing" textLength="126" x="241.5" y="447.0703">ItemBasket</text><line style="stroke:#0000FF;stroke-width:3.0;" x1="111" x2="433" y1="470" y2="470"/><polygon fill="none" points="131,482,139,490,131,498,123,490" style="stroke:#B38D22;stroke-width:2.0;"/><text fill="#000000" font-family="sans-serif" font-size="22" lengthAdjust="spacing" textLength="274" x="149" y="499.2695">inBasket: Boolean? = false</text><line style="stroke:#0000FF;stroke-width:2.0;" x1="111" x2="433" y1="511.9102" y2="511.9102"/><ellipse cx="131" cy="533.9102" fill="none" rx="6" ry="6" style="stroke:#038048;stroke-width:2.0;"/><text fill="#000000" font-family="sans-serif" font-size="22" font-style="italic" font-weight="bold" lengthAdjust="spacing" textLength="50" x="149" y="541.1797">item</text><!--MD5=[a7a294a2d2fc533a8f9f617ab0f8faab]
class Basket--><rect codeLine="35" fill="#FEFECE" filter="url(#f16)" height="183.6406" id="Basket" style="stroke:#000000;stroke-width:3.0;" width="194" x="537" y="91"/><ellipse cx="591.3" cy="123" fill="#22CC00" rx="22" ry="22" style="stroke:#000000;stroke-width:2.0;"/><path d="M598.5285,136 L583.0891,136 L583.0891,111.2139 L598.5285,111.2139 L598.5285,115.5303 L587.9865,115.5303 L587.9865,120.876 L597.5324,120.876 L597.5324,125.1924 L587.9865,125.1924 L587.9865,131.6836 L598.5285,131.6836 Z " fill="#000000"/><text fill="#000000" font-family="sans-serif" font-size="24" lengthAdjust="spacing" textLength="76" x="624.7" y="132.0703">Basket</text><line style="stroke:#000000;stroke-width:3.0;" x1="539" x2="729" y1="155" y2="155"/><path d="M561.0833,168.7435 C558.5533,168.7435 556.5,170.7968 556.5,173.3268 C556.5,173.6202 556.5,173.9135 556.555,174.1885 L551,179.7435 L551,183.4102 L556.5,183.4102 L556.5,179.7435 L560.1667,179.7435 L560.1667,177.9102 L560.2217,177.8552 C560.4967,177.9102 560.79,177.9102 561.0833,177.9102 C563.6133,177.9102 565.6667,175.8568 565.6667,173.3268 C565.6667,170.7968 563.6133,168.7435 561.0833,168.7435 M562,170.5768 C563.0083,170.5768 563.8333,171.4018 563.8333,172.4102 C563.8333,173.4185 563.0083,174.2435 562,174.2435 C560.9917,174.2435 560.1667,173.4185 560.1667,172.4102 C560.1667,171.4018 560.9917,170.5768 562,170.5768 " fill="#000000" style="stroke:;stroke-width:0.0;stroke-dasharray:;"/><text fill="#000000" font-family="sans-serif" font-size="22" font-weight="bold" lengthAdjust="spacing" textLength="22" x="567.6667" y="184.2695">id</text><text fill="#000000" font-family="sans-serif" font-size="22" lengthAdjust="spacing" textLength="40" x="595.6667" y="184.2695">: Int</text><text fill="#008000" font-family="sans-serif" font-size="22" lengthAdjust="spacing" text-decoration="underline" textLength="66" x="549" y="210.1797">itemId</text><text fill="#000000" font-family="sans-serif" font-size="22" lengthAdjust="spacing" textLength="64" x="621" y="210.1797">String</text><text fill="#000000" font-family="sans-serif" font-size="22" lengthAdjust="spacing" text-decoration="underline" textLength="88" x="549" y="236.0898">quantity</text><text fill="#000000" font-family="sans-serif" font-size="22" lengthAdjust="spacing" textLength="40" x="637" y="236.0898">: Int</text><text fill="#000000" font-family="sans-serif" font-size="22" lengthAdjust="spacing" text-decoration="underline" textLength="104" x="549" y="262">createdAt</text><text fill="#000000" font-family="sans-serif" font-size="22" lengthAdjust="spacing" textLength="66" x="653" y="262">: Long</text><!--MD5=[ebc76535f4b9ed2eecdfdae17bae5c4c]
class BasketItem--><rect codeLine="43" fill="#F0F8FF" filter="url(#f16)" height="147.8203" id="BasketItem" style="stroke:#0000FF;stroke-width:2.0;stroke-dasharray:1.0,3.0;" width="190" x="537" y="406"/><ellipse cx="567" cy="438" fill="#84B1FF" rx="22" ry="22" style="stroke:#0000FF;stroke-width:2.0;"/><path d="M569.6836,452.5 L564.7861,452.5 L564.7861,431.9971 L558.4941,431.9971 L558.4941,427.7139 L575.9756,427.7139 L575.9756,431.9971 L569.6836,431.9971 Z " fill="#000000"/><text fill="#000000" font-family="sans-serif" font-size="24" lengthAdjust="spacing" textLength="126" x="595" y="447.0703">BasketItem</text><line style="stroke:#0000FF;stroke-width:3.0;" x1="539" x2="725" y1="470" y2="470"/><line style="stroke:#0000FF;stroke-width:2.0;" x1="539" x2="725" y1="486" y2="486"/><ellipse cx="559" cy="508" fill="none" rx="6" ry="6" style="stroke:#038048;stroke-width:2.0;"/><text fill="#000000" font-family="sans-serif" font-size="22" font-style="italic" font-weight="bold" lengthAdjust="spacing" textLength="72" x="577" y="515.2695">basket</text><ellipse cx="559" cy="533.9102" fill="none" rx="6" ry="6" style="stroke:#038048;stroke-width:2.0;"/><text fill="#808080" font-family="sans-serif" font-size="22" font-style="italic" font-weight="bold" lengthAdjust="spacing" textLength="50" x="577" y="541.1797">item</text><!--MD5=[f9ba5bf973e7832d2ce5ed59077b93f7]
entity DB--><path d="M64,155 C64,135 102,135 102,135 C102,135 140,135 140,155 L140,205.9766 C140,225.9766 102,225.9766 102,225.9766 C102,225.9766 64,225.9766 64,205.9766 L64,155 " fill="#FFFFFF" filter="url(#f16)" style="stroke:#000000;stroke-width:3.0;"/><path d="M64,155 C64,175 102,175 102,175 C102,175 140,175 140,155 " fill="none" style="stroke:#000000;stroke-width:3.0;"/><text fill="#000000" font-family="sans-serif" font-size="28" lengthAdjust="spacing" textLength="36" x="84" y="210.0703">DB</text><!--MD5=[37d4506c30af4022ff3067d46ee0a160]
link Item to ItemBasket--><path codeLine="31" d="M388.4,278.02 C407.38,314.28 426.1,356.78 436,398 C448.8,451.26 490.58,520.12 448.34,529.04 " fill="none" id="Item-to-ItemBasket" style="stroke:#0000FF;stroke-width:2.0;"/><rect fill="#FFFFFF" height="20" style="stroke:#0000FF;stroke-width:3.0;" width="20" x="428" y="520"/><!--MD5=[76217dacbf8f762a7cabeef80fcc8291]
link Basket to BasketItem--><path codeLine="48" d="M699.56,277.46 C757.4,369.3 821.04,495.66 740.54,505.4 " fill="none" id="Basket-to-BasketItem" style="stroke:#0000FF;stroke-width:2.0;"/><rect fill="#FFFFFF" height="20" style="stroke:#0000FF;stroke-width:3.0;" width="20" x="720" y="496"/><!--MD5=[7ae6c2a977a394d663bf74071c5d92c8]
link Item to Basket--><path codeLine="52" d="M436,174 C478.34,174 488.58,196.1 525.9,199.54 " fill="none" id="Item-to-Basket" style="stroke:#008000;stroke-width:2.0;"/><polygon fill="#008000" points="536,200,518.3591,191.2366,526.0092,199.5718,517.674,207.2219,536,200" style="stroke:#008000;stroke-width:2.0;"/><text fill="#000000" font-family="sans-serif" font-size="26" lengthAdjust="spacing" textLength="16" x="505.0938" y="195.4869">1</text><!--MD5=[354c9b68364c7abd03e73c292d02c5f3]
link Item to BasketItem--><path codeLine="53" d="M407.96,278.42 C434.9,314.56 463.86,356.86 486,398 C514,450 478,521.08 526.02,529.22 " fill="none" id="Item-to-BasketItem" style="stroke:#008000;stroke-width:2.0;stroke-dasharray:7.0,7.0;"/><rect fill="#FFFFFF" height="20" style="stroke:#008000;stroke-width:3.0;" width="20" x="526" y="520"/><!--MD5=[f3a5409ace06f9c0bb3fa4525a460c75]
PlantUML version 1.2021.00(Sun Jan 10 05:25:05 EST 2021)
(GPL source distribution)
Java Runtime: OpenJDK Runtime Environment
JVM: OpenJDK 64-Bit Server VM
Default Encoding: UTF-8
Language: en
Country: US
--></g></svg>