<?xml version="1.0" encoding="UTF-8" standalone="no"?><svg xmlns="http://www.w3.org/2000/svg" xmlns:xlink="http://www.w3.org/1999/xlink" contentScriptType="application/ecmascript" contentStyleType="text/css" height="84.8px" preserveAspectRatio="none" style="width:473px;height:84px;" version="1.1" viewBox="0 0 473 84" width="473.6px" zoomAndPan="magnify"><defs><filter height="300%" id="f16" width="300%" x="-1" y="-1"><feGaussianBlur result="blurOut" stdDeviation="3.2"/><feColorMatrix in="blurOut" result="blurOut2" type="matrix" values="0 0 0 0 0 0 0 0 0 0 0 0 0 0 0 0 0 0 .4 0"/><feOffset dx="6.4" dy="6.4" in="blurOut2" result="blurOut3"/><feBlend in="SourceGraphic" in2="blurOut3" mode="normal"/></filter></defs><g><!--MD5=[39c1537870534f7377ea122b6d03a855]
class _entity--><rect codeLine="63" fill="#FEFECE" filter="url(#f16)" height="51.2" id="_entity" style="stroke:#000000;stroke-width:2.4000000000000004;" width="108.8" x="11.2" y="11.2"/><ellipse cx="35.2" cy="36.8" fill="#22CC00" rx="17.6" ry="17.6" style="stroke:#000000;stroke-width:1.6;"/><path d="M40.9828,47.2 L28.6313,47.2 L28.6313,27.3711 L40.9828,27.3711 L40.9828,30.8242 L32.5492,30.8242 L32.5492,35.1008 L40.1859,35.1008 L40.1859,38.5539 L32.5492,38.5539 L32.5492,43.7469 L40.9828,43.7469 Z " fill="#000000"/><text fill="#000000" font-family="sans-serif" font-size="19.2" font-weight="bold" lengthAdjust="spacing" textLength="57.6" x="57.6" y="44.0563">Entity</text><!--MD5=[9e2ef7708f61d86bbd9fb9718c5c80ae]
class _data_view--><rect codeLine="66" fill="#FEFECE" filter="url(#f16)" height="51.2" id="_data_view" style="stroke:#000000;stroke-width:2.4000000000000004;" width="137.6" x="128" y="11.2"/><ellipse cx="152" cy="36.8" fill="#FFD800" rx="17.6" ry="17.6" style="stroke:#000000;stroke-width:1.6;"/><path d="M150.5375,30.9039 L150.5375,43.6672 L151.6,43.6672 Q153.9109,43.6672 154.8938,42.2129 Q155.8766,40.7586 155.8766,37.2656 Q155.8766,33.7992 154.8938,32.3516 Q153.9109,30.9039 151.6,30.9039 Z M146.6195,27.3711 L150.8164,27.3711 Q155.6773,27.3711 157.8156,29.6887 Q159.9539,32.0063 159.9539,37.2656 Q159.9539,42.5383 157.8156,44.8691 Q155.6773,47.2 150.8164,47.2 L146.6195,47.2 Z " fill="#000000"/><text fill="#000000" font-family="sans-serif" font-size="19.2" lengthAdjust="spacing" textLength="86.4" x="174.4" y="44.0563">DataView</text><!--MD5=[0bef889b6ba96c9e983eafbccc53999e]
class _transfer_class--><rect codeLine="69" fill="#F0F8FF" filter="url(#f16)" height="51.2" id="_transfer_class" style="stroke:#0000FF;stroke-width:1.6;stroke-dasharray:1.0,3.0;" width="177.6" x="274.4" y="11.2"/><ellipse cx="298.4" cy="36.8" fill="#84B1FF" rx="17.6" ry="17.6" style="stroke:#0000FF;stroke-width:1.6;"/><path d="M300.5469,48.4 L296.6289,48.4 L296.6289,31.9977 L291.5953,31.9977 L291.5953,28.5711 L305.5805,28.5711 L305.5805,31.9977 L300.5469,31.9977 Z " fill="#000000"/><text fill="#000000" font-family="sans-serif" font-size="19.2" lengthAdjust="spacing" textLength="126.4" x="320.8" y="44.0563">TransferClass</text><!--MD5=[4366ca8416d7db871ec86be93ccb2f4e]
link _entity to _data_view--><!--MD5=[ea64d8c43e75b93b62fd101ff6769af8]
link _data_view to _transfer_class--><!--MD5=[f3a5409ace06f9c0bb3fa4525a460c75]
PlantUML version 1.2021.00(Sun Jan 10 05:25:05 EST 2021)
(GPL source distribution)
Java Runtime: OpenJDK Runtime Environment
JVM: OpenJDK 64-Bit Server VM
Default Encoding: UTF-8
Language: en
Country: US
--></g></svg>